<svg xmlns="http://www.w3.org/2000/svg" viewBox="0 0 100 100">
  <rect width="100" height="100" fill="#0a0a0a"/>
  <!-- Kremlin Tower -->
  <path d="M30 60 L30 40 L35 40 L35 35 L40 35 L40 30 L45 30 L45 25 L50 25 L50 30 L55 30 L55 35 L60 35 L60 40 L65 40 L65 60 Z" fill="#dc2626"/>
  <!-- Star on top -->
  <path d="M50 20 L52 26 L58 26 L53 30 L55 36 L50 32 L45 36 L47 30 L42 26 L48 26 Z" fill="#d4af37"/>
  <!-- Red star in center -->
  <path d="M50 45 L52 50 L58 50 L53 54 L55 59 L50 55 L45 59 L47 54 L42 50 L48 50 Z" fill="#dc2626"/>
</svg>

